<mxfile host="app.diagrams.net" modified="2022-03-08T10:08:48.009Z" agent="5.0 (Windows NT 10.0; Win64; x64) AppleWebKit/537.36 (KHTML, like Gecko) Chrome/99.0.4844.51 Safari/537.36" etag="Sp6Ekwf6NeJcohlryyyj" version="16.5.3" type="github">
  <diagram name="Page-1" id="b520641d-4fe3-3701-9064-5fc419738815">
    <mxGraphModel dx="1422" dy="762" grid="1" gridSize="10" guides="1" tooltips="1" connect="1" arrows="1" fold="1" page="1" pageScale="1" pageWidth="1100" pageHeight="850" background="none" math="0" shadow="0">
      <root>
        <mxCell id="0" />
        <mxCell id="1" parent="0" />
        <mxCell id="FI19ddVrxheyFL2yLddo-24" style="edgeStyle=orthogonalEdgeStyle;rounded=0;orthogonalLoop=1;jettySize=auto;html=1;exitX=0.5;exitY=1;exitDx=0;exitDy=0;exitPerimeter=0;entryX=0.5;entryY=0;entryDx=0;entryDy=0;" edge="1" parent="1" source="FI19ddVrxheyFL2yLddo-5" target="FI19ddVrxheyFL2yLddo-17">
          <mxGeometry relative="1" as="geometry" />
        </mxCell>
        <mxCell id="FI19ddVrxheyFL2yLddo-27" style="edgeStyle=orthogonalEdgeStyle;rounded=0;orthogonalLoop=1;jettySize=auto;html=1;exitX=0;exitY=0;exitDx=110;exitDy=32;exitPerimeter=0;entryX=0;entryY=0;entryDx=20;entryDy=0;entryPerimeter=0;" edge="1" parent="1" source="FI19ddVrxheyFL2yLddo-5" target="FI19ddVrxheyFL2yLddo-26">
          <mxGeometry relative="1" as="geometry" />
        </mxCell>
        <mxCell id="FI19ddVrxheyFL2yLddo-45" style="edgeStyle=orthogonalEdgeStyle;rounded=0;orthogonalLoop=1;jettySize=auto;html=1;exitX=0;exitY=0;exitDx=110;exitDy=32;exitPerimeter=0;entryX=0;entryY=0;entryDx=20;entryDy=0;entryPerimeter=0;fontColor=default;" edge="1" parent="1" source="FI19ddVrxheyFL2yLddo-5" target="FI19ddVrxheyFL2yLddo-38">
          <mxGeometry relative="1" as="geometry" />
        </mxCell>
        <mxCell id="FI19ddVrxheyFL2yLddo-99" style="edgeStyle=orthogonalEdgeStyle;rounded=0;orthogonalLoop=1;jettySize=auto;html=1;exitX=0;exitY=0;exitDx=110;exitDy=32;exitPerimeter=0;entryX=0;entryY=0;entryDx=20;entryDy=0;entryPerimeter=0;fontColor=default;" edge="1" parent="1" source="FI19ddVrxheyFL2yLddo-5" target="FI19ddVrxheyFL2yLddo-98">
          <mxGeometry relative="1" as="geometry" />
        </mxCell>
        <mxCell id="FI19ddVrxheyFL2yLddo-5" value="drivermonitor" style="shape=folder;fontStyle=1;spacingTop=10;tabWidth=40;tabHeight=14;tabPosition=left;html=1;" vertex="1" parent="1">
          <mxGeometry x="105" y="20" width="110" height="50" as="geometry" />
        </mxCell>
        <mxCell id="FI19ddVrxheyFL2yLddo-17" value="DriverMonitor" style="swimlane;fontStyle=0;childLayout=stackLayout;horizontal=1;startSize=26;fillColor=#e0e0e0;horizontalStack=0;resizeParent=1;resizeLast=0;collapsible=1;marginBottom=0;swimlaneFillColor=#ffffff;align=center;rounded=1;shadow=0;comic=0;labelBackgroundColor=none;strokeWidth=1;fontFamily=Verdana;fontSize=12" vertex="1" parent="1">
          <mxGeometry x="70" y="160" width="250" height="156" as="geometry">
            <mxRectangle x="30" y="120" width="130" height="50" as="alternateBounds" />
          </mxGeometry>
        </mxCell>
        <mxCell id="FI19ddVrxheyFL2yLddo-18" value="init()" style="text;html=1;strokeColor=none;fillColor=none;spacingLeft=4;spacingRight=4;whiteSpace=wrap;overflow=hidden;rotatable=0;points=[[0,0.5],[1,0.5]];portConstraint=eastwest;" vertex="1" parent="FI19ddVrxheyFL2yLddo-17">
          <mxGeometry y="26" width="250" height="26" as="geometry" />
        </mxCell>
        <mxCell id="FI19ddVrxheyFL2yLddo-19" value="lockForSingleInstance()" style="text;html=1;strokeColor=none;fillColor=none;spacingLeft=4;spacingRight=4;whiteSpace=wrap;overflow=hidden;rotatable=0;points=[[0,0.5],[1,0.5]];portConstraint=eastwest;" vertex="1" parent="FI19ddVrxheyFL2yLddo-17">
          <mxGeometry y="52" width="250" height="26" as="geometry" />
        </mxCell>
        <mxCell id="FI19ddVrxheyFL2yLddo-20" value="start(Stage)" style="text;html=1;strokeColor=none;fillColor=none;spacingLeft=4;spacingRight=4;whiteSpace=wrap;overflow=hidden;rotatable=0;points=[[0,0.5],[1,0.5]];portConstraint=eastwest;" vertex="1" parent="FI19ddVrxheyFL2yLddo-17">
          <mxGeometry y="78" width="250" height="26" as="geometry" />
        </mxCell>
        <mxCell id="FI19ddVrxheyFL2yLddo-25" style="edgeStyle=orthogonalEdgeStyle;rounded=0;orthogonalLoop=1;jettySize=auto;html=1;exitX=0;exitY=0.5;exitDx=0;exitDy=0;entryX=0;entryY=0.5;entryDx=0;entryDy=0;" edge="1" parent="FI19ddVrxheyFL2yLddo-17" source="FI19ddVrxheyFL2yLddo-22" target="FI19ddVrxheyFL2yLddo-23">
          <mxGeometry relative="1" as="geometry">
            <Array as="points">
              <mxPoint x="-20" y="117" />
              <mxPoint x="-20" y="143" />
            </Array>
          </mxGeometry>
        </mxCell>
        <mxCell id="FI19ddVrxheyFL2yLddo-22" value="main(String[])" style="text;html=1;strokeColor=none;fillColor=none;spacingLeft=4;spacingRight=4;whiteSpace=wrap;overflow=hidden;rotatable=0;points=[[0,0.5],[1,0.5]];portConstraint=eastwest;" vertex="1" parent="FI19ddVrxheyFL2yLddo-17">
          <mxGeometry y="104" width="250" height="26" as="geometry" />
        </mxCell>
        <mxCell id="FI19ddVrxheyFL2yLddo-23" value="createInitializationFailureAlert(String,&amp;nbsp;String)" style="text;html=1;strokeColor=none;fillColor=none;spacingLeft=4;spacingRight=4;whiteSpace=wrap;overflow=hidden;rotatable=0;points=[[0,0.5],[1,0.5]];portConstraint=eastwest;" vertex="1" parent="FI19ddVrxheyFL2yLddo-17">
          <mxGeometry y="130" width="250" height="26" as="geometry" />
        </mxCell>
        <mxCell id="FI19ddVrxheyFL2yLddo-36" style="edgeStyle=orthogonalEdgeStyle;rounded=0;orthogonalLoop=1;jettySize=auto;html=1;exitX=0.5;exitY=1;exitDx=0;exitDy=0;exitPerimeter=0;fontColor=default;" edge="1" parent="1" source="FI19ddVrxheyFL2yLddo-26" target="FI19ddVrxheyFL2yLddo-28">
          <mxGeometry relative="1" as="geometry" />
        </mxCell>
        <mxCell id="FI19ddVrxheyFL2yLddo-26" value="exceptionhandler" style="shape=folder;fontStyle=1;spacingTop=10;tabWidth=40;tabHeight=14;tabPosition=left;strokeColor=default;fillColor=default;fontColor=default;" vertex="1" parent="1">
          <mxGeometry x="500" y="110" width="130" height="50" as="geometry" />
        </mxCell>
        <mxCell id="FI19ddVrxheyFL2yLddo-28" value="ClinicalMonitorExceptionHandler" style="swimlane;fontStyle=0;childLayout=stackLayout;horizontal=1;startSize=26;fillColor=#e0e0e0;horizontalStack=0;resizeParent=1;resizeLast=0;collapsible=1;marginBottom=0;swimlaneFillColor=#ffffff;align=center;rounded=1;shadow=0;comic=0;labelBackgroundColor=none;strokeWidth=1;fontFamily=Verdana;fontSize=12" vertex="1" parent="1">
          <mxGeometry x="360" y="228" width="410" height="204" as="geometry">
            <mxRectangle x="30" y="120" width="130" height="50" as="alternateBounds" />
          </mxGeometry>
        </mxCell>
        <mxCell id="FI19ddVrxheyFL2yLddo-29" value="setMainWindowController(MainWindowController)" style="text;html=1;strokeColor=none;fillColor=none;spacingLeft=4;spacingRight=4;whiteSpace=wrap;overflow=hidden;rotatable=0;points=[[0,0.5],[1,0.5]];portConstraint=eastwest;" vertex="1" parent="FI19ddVrxheyFL2yLddo-28">
          <mxGeometry y="26" width="410" height="26" as="geometry" />
        </mxCell>
        <mxCell id="FI19ddVrxheyFL2yLddo-30" value="handleExceptionWithoutAlert(ClinicalMonitorException)" style="text;html=1;strokeColor=none;fillColor=none;spacingLeft=4;spacingRight=4;whiteSpace=wrap;overflow=hidden;rotatable=0;points=[[0,0.5],[1,0.5]];portConstraint=eastwest;" vertex="1" parent="FI19ddVrxheyFL2yLddo-28">
          <mxGeometry y="52" width="410" height="26" as="geometry" />
        </mxCell>
        <mxCell id="FI19ddVrxheyFL2yLddo-31" value="handleException(ClinicalMonitorException)" style="text;html=1;strokeColor=none;fillColor=none;spacingLeft=4;spacingRight=4;whiteSpace=wrap;overflow=hidden;rotatable=0;points=[[0,0.5],[1,0.5]];portConstraint=eastwest;" vertex="1" parent="FI19ddVrxheyFL2yLddo-28">
          <mxGeometry y="78" width="410" height="22" as="geometry" />
        </mxCell>
        <mxCell id="FI19ddVrxheyFL2yLddo-33" value="handleException(ClinicalMonitorException, boolean)" style="text;html=1;strokeColor=none;fillColor=none;spacingLeft=4;spacingRight=4;whiteSpace=wrap;overflow=hidden;rotatable=0;points=[[0,0.5],[1,0.5]];portConstraint=eastwest;" vertex="1" parent="FI19ddVrxheyFL2yLddo-28">
          <mxGeometry y="100" width="410" height="26" as="geometry" />
        </mxCell>
        <mxCell id="FI19ddVrxheyFL2yLddo-95" value="handleException(ClinicalMonitorException, boolean, boolean)" style="text;html=1;strokeColor=none;fillColor=none;spacingLeft=4;spacingRight=4;whiteSpace=wrap;overflow=hidden;rotatable=0;points=[[0,0.5],[1,0.5]];portConstraint=eastwest;" vertex="1" parent="FI19ddVrxheyFL2yLddo-28">
          <mxGeometry y="126" width="410" height="26" as="geometry" />
        </mxCell>
        <mxCell id="FI19ddVrxheyFL2yLddo-96" value="handleException(ClinicalMonitorException, boolean, boolean, boolean)" style="text;html=1;strokeColor=none;fillColor=none;spacingLeft=4;spacingRight=4;whiteSpace=wrap;overflow=hidden;rotatable=0;points=[[0,0.5],[1,0.5]];portConstraint=eastwest;" vertex="1" parent="FI19ddVrxheyFL2yLddo-28">
          <mxGeometry y="152" width="410" height="26" as="geometry" />
        </mxCell>
        <mxCell id="FI19ddVrxheyFL2yLddo-97" value="showAlertAndExit(ClinicalMonitorException, boolean, boolean, boolean)" style="text;html=1;strokeColor=none;fillColor=none;spacingLeft=4;spacingRight=4;whiteSpace=wrap;overflow=hidden;rotatable=0;points=[[0,0.5],[1,0.5]];portConstraint=eastwest;" vertex="1" parent="FI19ddVrxheyFL2yLddo-28">
          <mxGeometry y="178" width="410" height="26" as="geometry" />
        </mxCell>
        <mxCell id="FI19ddVrxheyFL2yLddo-37" style="edgeStyle=orthogonalEdgeStyle;rounded=0;orthogonalLoop=1;jettySize=auto;html=1;exitX=1;exitY=0.5;exitDx=0;exitDy=0;entryX=0.25;entryY=0;entryDx=0;entryDy=0;fontColor=default;" edge="1" parent="1" source="FI19ddVrxheyFL2yLddo-18" target="FI19ddVrxheyFL2yLddo-28">
          <mxGeometry relative="1" as="geometry" />
        </mxCell>
        <mxCell id="FI19ddVrxheyFL2yLddo-46" style="edgeStyle=orthogonalEdgeStyle;rounded=0;orthogonalLoop=1;jettySize=auto;html=1;exitX=0;exitY=0;exitDx=100;exitDy=32;exitPerimeter=0;entryX=0;entryY=0;entryDx=20;entryDy=0;entryPerimeter=0;fontColor=default;" edge="1" parent="1" source="FI19ddVrxheyFL2yLddo-38" target="FI19ddVrxheyFL2yLddo-39">
          <mxGeometry relative="1" as="geometry" />
        </mxCell>
        <mxCell id="FI19ddVrxheyFL2yLddo-69" style="edgeStyle=orthogonalEdgeStyle;rounded=0;orthogonalLoop=1;jettySize=auto;html=1;exitX=0.5;exitY=1;exitDx=0;exitDy=0;exitPerimeter=0;entryX=0.5;entryY=0;entryDx=0;entryDy=0;fontColor=default;" edge="1" parent="1" source="FI19ddVrxheyFL2yLddo-38" target="FI19ddVrxheyFL2yLddo-68">
          <mxGeometry relative="1" as="geometry" />
        </mxCell>
        <mxCell id="FI19ddVrxheyFL2yLddo-38" value="userinterface" style="shape=folder;fontStyle=1;spacingTop=10;tabWidth=40;tabHeight=14;tabPosition=left;strokeColor=default;fillColor=default;fontColor=default;" vertex="1" parent="1">
          <mxGeometry x="1040" y="110" width="100" height="50" as="geometry" />
        </mxCell>
        <mxCell id="FI19ddVrxheyFL2yLddo-47" style="edgeStyle=orthogonalEdgeStyle;rounded=0;orthogonalLoop=1;jettySize=auto;html=1;exitX=0.5;exitY=1;exitDx=0;exitDy=0;exitPerimeter=0;entryX=0.5;entryY=0;entryDx=0;entryDy=0;fontColor=default;" edge="1" parent="1" source="FI19ddVrxheyFL2yLddo-39" target="FI19ddVrxheyFL2yLddo-40">
          <mxGeometry relative="1" as="geometry" />
        </mxCell>
        <mxCell id="FI19ddVrxheyFL2yLddo-39" value="mainwindow" style="shape=folder;fontStyle=1;spacingTop=10;tabWidth=40;tabHeight=14;tabPosition=left;strokeColor=default;fillColor=default;fontColor=default;" vertex="1" parent="1">
          <mxGeometry x="1490" y="228" width="100" height="50" as="geometry" />
        </mxCell>
        <mxCell id="FI19ddVrxheyFL2yLddo-40" value="MainWindowCenterController" style="swimlane;fontStyle=0;childLayout=stackLayout;horizontal=1;startSize=26;fillColor=#e0e0e0;horizontalStack=0;resizeParent=1;resizeLast=0;collapsible=1;marginBottom=0;swimlaneFillColor=#ffffff;align=center;rounded=1;shadow=0;comic=0;labelBackgroundColor=none;strokeWidth=1;fontFamily=Verdana;fontSize=12" vertex="1" parent="1">
          <mxGeometry x="1430" y="460" width="280" height="520" as="geometry">
            <mxRectangle x="30" y="120" width="130" height="50" as="alternateBounds" />
          </mxGeometry>
        </mxCell>
        <mxCell id="FI19ddVrxheyFL2yLddo-41" value="setMainWindowController(MainWindowController)" style="text;html=1;strokeColor=none;fillColor=none;spacingLeft=4;spacingRight=4;whiteSpace=wrap;overflow=hidden;rotatable=0;points=[[0,0.5],[1,0.5]];portConstraint=eastwest;" vertex="1" parent="FI19ddVrxheyFL2yLddo-40">
          <mxGeometry y="26" width="280" height="26" as="geometry" />
        </mxCell>
        <mxCell id="FI19ddVrxheyFL2yLddo-42" value="initializeWidgets()" style="text;html=1;strokeColor=none;fillColor=none;spacingLeft=4;spacingRight=4;whiteSpace=wrap;overflow=hidden;rotatable=0;points=[[0,0.5],[1,0.5]];portConstraint=eastwest;" vertex="1" parent="FI19ddVrxheyFL2yLddo-40">
          <mxGeometry y="52" width="280" height="26" as="geometry" />
        </mxCell>
        <mxCell id="FI19ddVrxheyFL2yLddo-43" value="onActionFreeze(ActionEvent)" style="text;html=1;strokeColor=none;fillColor=none;spacingLeft=4;spacingRight=4;whiteSpace=wrap;overflow=hidden;rotatable=0;points=[[0,0.5],[1,0.5]];portConstraint=eastwest;" vertex="1" parent="FI19ddVrxheyFL2yLddo-40">
          <mxGeometry y="78" width="280" height="22" as="geometry" />
        </mxCell>
        <mxCell id="FI19ddVrxheyFL2yLddo-44" value="onActionScale16Secs(ActionEvent)" style="text;html=1;strokeColor=none;fillColor=none;spacingLeft=4;spacingRight=4;whiteSpace=wrap;overflow=hidden;rotatable=0;points=[[0,0.5],[1,0.5]];portConstraint=eastwest;" vertex="1" parent="FI19ddVrxheyFL2yLddo-40">
          <mxGeometry y="100" width="280" height="26" as="geometry" />
        </mxCell>
        <mxCell id="FI19ddVrxheyFL2yLddo-48" value="onActionScale4Secs(ActionEvent)" style="text;html=1;strokeColor=none;fillColor=none;spacingLeft=4;spacingRight=4;whiteSpace=wrap;overflow=hidden;rotatable=0;points=[[0,0.5],[1,0.5]];portConstraint=eastwest;" vertex="1" parent="FI19ddVrxheyFL2yLddo-40">
          <mxGeometry y="126" width="280" height="26" as="geometry" />
        </mxCell>
        <mxCell id="FI19ddVrxheyFL2yLddo-49" value="onActionScale8Secs(ActionEvent)" style="text;html=1;strokeColor=none;fillColor=none;spacingLeft=4;spacingRight=4;whiteSpace=wrap;overflow=hidden;rotatable=0;points=[[0,0.5],[1,0.5]];portConstraint=eastwest;" vertex="1" parent="FI19ddVrxheyFL2yLddo-40">
          <mxGeometry y="152" width="280" height="26" as="geometry" />
        </mxCell>
        <mxCell id="FI19ddVrxheyFL2yLddo-50" value="prepareSeeDetailIcon()" style="text;html=1;strokeColor=none;fillColor=none;spacingLeft=4;spacingRight=4;whiteSpace=wrap;overflow=hidden;rotatable=0;points=[[0,0.5],[1,0.5]];portConstraint=eastwest;" vertex="1" parent="FI19ddVrxheyFL2yLddo-40">
          <mxGeometry y="178" width="280" height="26" as="geometry" />
        </mxCell>
        <mxCell id="FI19ddVrxheyFL2yLddo-51" value="updateSeeDetailIconColor(boolean)" style="text;html=1;strokeColor=none;fillColor=none;spacingLeft=4;spacingRight=4;whiteSpace=wrap;overflow=hidden;rotatable=0;points=[[0,0.5],[1,0.5]];portConstraint=eastwest;" vertex="1" parent="FI19ddVrxheyFL2yLddo-40">
          <mxGeometry y="204" width="280" height="26" as="geometry" />
        </mxCell>
        <mxCell id="FI19ddVrxheyFL2yLddo-52" value="setAlarmMsgA(int)" style="text;html=1;strokeColor=none;fillColor=none;spacingLeft=4;spacingRight=4;whiteSpace=wrap;overflow=hidden;rotatable=0;points=[[0,0.5],[1,0.5]];portConstraint=eastwest;" vertex="1" parent="FI19ddVrxheyFL2yLddo-40">
          <mxGeometry y="230" width="280" height="26" as="geometry" />
        </mxCell>
        <mxCell id="FI19ddVrxheyFL2yLddo-53" value="setAlarmMsgB(int)" style="text;html=1;strokeColor=none;fillColor=none;spacingLeft=4;spacingRight=4;whiteSpace=wrap;overflow=hidden;rotatable=0;points=[[0,0.5],[1,0.5]];portConstraint=eastwest;" vertex="1" parent="FI19ddVrxheyFL2yLddo-40">
          <mxGeometry y="256" width="280" height="26" as="geometry" />
        </mxCell>
        <mxCell id="FI19ddVrxheyFL2yLddo-54" value="setAlarmMsg(GridPane, Label , Label, int)" style="text;html=1;strokeColor=none;fillColor=none;spacingLeft=4;spacingRight=4;whiteSpace=wrap;overflow=hidden;rotatable=0;points=[[0,0.5],[1,0.5]];portConstraint=eastwest;" vertex="1" parent="FI19ddVrxheyFL2yLddo-40">
          <mxGeometry y="282" width="280" height="26" as="geometry" />
        </mxCell>
        <mxCell id="FI19ddVrxheyFL2yLddo-55" value="getPaneChartBpp()" style="text;html=1;strokeColor=none;fillColor=none;spacingLeft=4;spacingRight=4;whiteSpace=wrap;overflow=hidden;rotatable=0;points=[[0,0.5],[1,0.5]];portConstraint=eastwest;" vertex="1" parent="FI19ddVrxheyFL2yLddo-40">
          <mxGeometry y="308" width="280" height="26" as="geometry" />
        </mxCell>
        <mxCell id="FI19ddVrxheyFL2yLddo-56" value="getPaneChartDriver()" style="text;html=1;strokeColor=none;fillColor=none;spacingLeft=4;spacingRight=4;whiteSpace=wrap;overflow=hidden;rotatable=0;points=[[0,0.5],[1,0.5]];portConstraint=eastwest;" vertex="1" parent="FI19ddVrxheyFL2yLddo-40">
          <mxGeometry y="334" width="280" height="26" as="geometry" />
        </mxCell>
        <mxCell id="FI19ddVrxheyFL2yLddo-57" value="getPaneChartEcg()" style="text;html=1;strokeColor=none;fillColor=none;spacingLeft=4;spacingRight=4;whiteSpace=wrap;overflow=hidden;rotatable=0;points=[[0,0.5],[1,0.5]];portConstraint=eastwest;" vertex="1" parent="FI19ddVrxheyFL2yLddo-40">
          <mxGeometry y="360" width="280" height="26" as="geometry" />
        </mxCell>
        <mxCell id="FI19ddVrxheyFL2yLddo-58" value="getAlarmHeaderColor(int)" style="text;html=1;strokeColor=none;fillColor=none;spacingLeft=4;spacingRight=4;whiteSpace=wrap;overflow=hidden;rotatable=0;points=[[0,0.5],[1,0.5]];portConstraint=eastwest;" vertex="1" parent="FI19ddVrxheyFL2yLddo-40">
          <mxGeometry y="386" width="280" height="26" as="geometry" />
        </mxCell>
        <mxCell id="FI19ddVrxheyFL2yLddo-59" value="addPanel(Node)" style="text;html=1;strokeColor=none;fillColor=none;spacingLeft=4;spacingRight=4;whiteSpace=wrap;overflow=hidden;rotatable=0;points=[[0,0.5],[1,0.5]];portConstraint=eastwest;" vertex="1" parent="FI19ddVrxheyFL2yLddo-40">
          <mxGeometry y="412" width="280" height="26" as="geometry" />
        </mxCell>
        <mxCell id="FI19ddVrxheyFL2yLddo-60" value="addPanelToAlarmPanel(Node)" style="text;html=1;strokeColor=none;fillColor=none;spacingLeft=4;spacingRight=4;whiteSpace=wrap;overflow=hidden;rotatable=0;points=[[0,0.5],[1,0.5]];portConstraint=eastwest;" vertex="1" parent="FI19ddVrxheyFL2yLddo-40">
          <mxGeometry y="438" width="280" height="26" as="geometry" />
        </mxCell>
        <mxCell id="FI19ddVrxheyFL2yLddo-61" value="stackPaneHeightProperty()" style="text;html=1;strokeColor=none;fillColor=none;spacingLeft=4;spacingRight=4;whiteSpace=wrap;overflow=hidden;rotatable=0;points=[[0,0.5],[1,0.5]];portConstraint=eastwest;" vertex="1" parent="FI19ddVrxheyFL2yLddo-40">
          <mxGeometry y="464" width="280" height="26" as="geometry" />
        </mxCell>
        <mxCell id="FI19ddVrxheyFL2yLddo-62" value="initializeBinding()" style="text;html=1;strokeColor=none;fillColor=none;spacingLeft=4;spacingRight=4;whiteSpace=wrap;overflow=hidden;rotatable=0;points=[[0,0.5],[1,0.5]];portConstraint=eastwest;" vertex="1" parent="FI19ddVrxheyFL2yLddo-40">
          <mxGeometry y="490" width="280" height="26" as="geometry" />
        </mxCell>
        <mxCell id="FI19ddVrxheyFL2yLddo-70" style="edgeStyle=orthogonalEdgeStyle;rounded=0;orthogonalLoop=1;jettySize=auto;html=1;exitX=0.5;exitY=1;exitDx=0;exitDy=0;entryX=0.25;entryY=0;entryDx=0;entryDy=0;fontColor=default;dashed=1;" edge="1" parent="1" source="FI19ddVrxheyFL2yLddo-68" target="FI19ddVrxheyFL2yLddo-40">
          <mxGeometry relative="1" as="geometry" />
        </mxCell>
        <mxCell id="FI19ddVrxheyFL2yLddo-68" value="&lt;p style=&quot;margin: 0px ; margin-top: 4px ; text-align: center&quot;&gt;&lt;i&gt;&amp;lt;&amp;lt;Interface&amp;gt;&amp;gt;&lt;/i&gt;&lt;br&gt;&lt;b&gt;UIBaseController&lt;/b&gt;&lt;br&gt;&lt;/p&gt;&lt;hr size=&quot;1&quot;&gt;&lt;p style=&quot;margin: 0px ; margin-left: 4px&quot;&gt;MainWindowController mainWindowController&lt;br&gt;+ field2: Type&lt;/p&gt;&lt;hr size=&quot;1&quot;&gt;&lt;p style=&quot;margin: 0px ; margin-left: 4px&quot;&gt;initializeWidgets()&lt;br&gt;initializeBinding()&lt;br&gt;configureLabelBinding(Labeled, SimpleObjectProperty, BooleanProperty, Callable&amp;lt;String&amp;gt;)&lt;br&gt;configureLabelBinding(Labeled, SimpleObjectProperty, BooleanProperty, Callable&amp;lt;String&amp;gt;, String)&lt;br&gt;configureTextFieldBinding(TextField, SimpleObjectProperty, BooleanProperty, Callable&amp;lt;String&amp;gt;, String)&lt;br&gt;configureLabelColor(Label, SimpleObjectProperty, Callable&amp;lt;Color&amp;gt;)&lt;br&gt;&lt;/p&gt;" style="verticalAlign=top;align=left;overflow=fill;fontSize=12;fontFamily=Helvetica;html=1;fontColor=default;strokeColor=default;fillColor=default;" vertex="1" parent="1">
          <mxGeometry x="810" y="228" width="560" height="180" as="geometry" />
        </mxCell>
        <mxCell id="FI19ddVrxheyFL2yLddo-120" style="edgeStyle=orthogonalEdgeStyle;rounded=0;orthogonalLoop=1;jettySize=auto;html=1;exitX=0.5;exitY=1;exitDx=0;exitDy=0;exitPerimeter=0;entryX=0.5;entryY=0;entryDx=0;entryDy=0;fontColor=default;" edge="1" parent="1" source="FI19ddVrxheyFL2yLddo-98" target="FI19ddVrxheyFL2yLddo-100">
          <mxGeometry relative="1" as="geometry" />
        </mxCell>
        <mxCell id="FI19ddVrxheyFL2yLddo-130" style="edgeStyle=orthogonalEdgeStyle;rounded=0;orthogonalLoop=1;jettySize=auto;html=1;exitX=0.5;exitY=1;exitDx=0;exitDy=0;exitPerimeter=0;fontColor=default;" edge="1" parent="1" source="FI19ddVrxheyFL2yLddo-98" target="FI19ddVrxheyFL2yLddo-122">
          <mxGeometry relative="1" as="geometry" />
        </mxCell>
        <mxCell id="FI19ddVrxheyFL2yLddo-98" value="alarm" style="shape=folder;fontStyle=1;spacingTop=10;tabWidth=40;tabHeight=14;tabPosition=left;strokeColor=default;fillColor=default;fontColor=default;" vertex="1" parent="1">
          <mxGeometry x="1925" y="110" width="100" height="50" as="geometry" />
        </mxCell>
        <mxCell id="FI19ddVrxheyFL2yLddo-100" value="AlarmRawInformation" style="swimlane;fontStyle=0;childLayout=stackLayout;horizontal=1;startSize=26;fillColor=#e0e0e0;horizontalStack=0;resizeParent=1;resizeLast=0;collapsible=1;marginBottom=0;swimlaneFillColor=#ffffff;align=center;rounded=1;shadow=0;comic=0;labelBackgroundColor=none;strokeWidth=1;fontFamily=Verdana;fontSize=12" vertex="1" parent="1">
          <mxGeometry x="1820" y="460" width="310" height="210" as="geometry">
            <mxRectangle x="30" y="120" width="130" height="50" as="alternateBounds" />
          </mxGeometry>
        </mxCell>
        <mxCell id="FI19ddVrxheyFL2yLddo-101" value="AlarmRawInformation()" style="text;html=1;strokeColor=none;fillColor=none;spacingLeft=4;spacingRight=4;whiteSpace=wrap;overflow=hidden;rotatable=0;points=[[0,0.5],[1,0.5]];portConstraint=eastwest;" vertex="1" parent="FI19ddVrxheyFL2yLddo-100">
          <mxGeometry y="26" width="310" height="26" as="geometry" />
        </mxCell>
        <mxCell id="FI19ddVrxheyFL2yLddo-102" value="AlarmRawInformation(int, String, String, String, String)" style="text;html=1;strokeColor=none;fillColor=none;spacingLeft=4;spacingRight=4;whiteSpace=wrap;overflow=hidden;rotatable=0;points=[[0,0.5],[1,0.5]];portConstraint=eastwest;" vertex="1" parent="FI19ddVrxheyFL2yLddo-100">
          <mxGeometry y="52" width="310" height="26" as="geometry" />
        </mxCell>
        <mxCell id="FI19ddVrxheyFL2yLddo-103" value="getAlarmLevel()" style="text;html=1;strokeColor=none;fillColor=none;spacingLeft=4;spacingRight=4;whiteSpace=wrap;overflow=hidden;rotatable=0;points=[[0,0.5],[1,0.5]];portConstraint=eastwest;" vertex="1" parent="FI19ddVrxheyFL2yLddo-100">
          <mxGeometry y="78" width="310" height="22" as="geometry" />
        </mxCell>
        <mxCell id="FI19ddVrxheyFL2yLddo-104" value="getCategory()" style="text;html=1;strokeColor=none;fillColor=none;spacingLeft=4;spacingRight=4;whiteSpace=wrap;overflow=hidden;rotatable=0;points=[[0,0.5],[1,0.5]];portConstraint=eastwest;" vertex="1" parent="FI19ddVrxheyFL2yLddo-100">
          <mxGeometry y="100" width="310" height="26" as="geometry" />
        </mxCell>
        <mxCell id="FI19ddVrxheyFL2yLddo-105" value="getTitle()" style="text;html=1;strokeColor=none;fillColor=none;spacingLeft=4;spacingRight=4;whiteSpace=wrap;overflow=hidden;rotatable=0;points=[[0,0.5],[1,0.5]];portConstraint=eastwest;" vertex="1" parent="FI19ddVrxheyFL2yLddo-100">
          <mxGeometry y="126" width="310" height="26" as="geometry" />
        </mxCell>
        <mxCell id="FI19ddVrxheyFL2yLddo-106" value="getDescription()" style="text;html=1;strokeColor=none;fillColor=none;spacingLeft=4;spacingRight=4;whiteSpace=wrap;overflow=hidden;rotatable=0;points=[[0,0.5],[1,0.5]];portConstraint=eastwest;" vertex="1" parent="FI19ddVrxheyFL2yLddo-100">
          <mxGeometry y="152" width="310" height="26" as="geometry" />
        </mxCell>
        <mxCell id="FI19ddVrxheyFL2yLddo-107" value="getAction()" style="text;html=1;strokeColor=none;fillColor=none;spacingLeft=4;spacingRight=4;whiteSpace=wrap;overflow=hidden;rotatable=0;points=[[0,0.5],[1,0.5]];portConstraint=eastwest;" vertex="1" parent="FI19ddVrxheyFL2yLddo-100">
          <mxGeometry y="178" width="310" height="26" as="geometry" />
        </mxCell>
        <mxCell id="FI19ddVrxheyFL2yLddo-121" style="edgeStyle=orthogonalEdgeStyle;rounded=0;orthogonalLoop=1;jettySize=auto;html=1;exitX=1;exitY=0.5;exitDx=0;exitDy=0;fontColor=default;" edge="1" parent="1" source="FI19ddVrxheyFL2yLddo-54" target="FI19ddVrxheyFL2yLddo-102">
          <mxGeometry relative="1" as="geometry" />
        </mxCell>
        <mxCell id="FI19ddVrxheyFL2yLddo-122" value="AlarmUtils" style="swimlane;fontStyle=0;childLayout=stackLayout;horizontal=1;startSize=26;fillColor=#e0e0e0;horizontalStack=0;resizeParent=1;resizeLast=0;collapsible=1;marginBottom=0;swimlaneFillColor=#ffffff;align=center;rounded=1;shadow=0;comic=0;labelBackgroundColor=none;strokeWidth=1;fontFamily=Verdana;fontSize=12" vertex="1" parent="1">
          <mxGeometry x="2180" y="460" width="310" height="40" as="geometry">
            <mxRectangle x="30" y="120" width="130" height="50" as="alternateBounds" />
          </mxGeometry>
        </mxCell>
      </root>
    </mxGraphModel>
  </diagram>
</mxfile>
